# xmcd
#
# Track frame offsets: 
#        162
#        4137
#        22632
#        51255
#        73445
#        101850
#        107587
#        147050
#        163462
#        189155
#
# Disc length: 2697 seconds
#
# Revision: 6
# Processed by: cddbd v1.5.2PL0 Copyright (c) Steve Scherf et al.
# Submitted via: ExactAudioCopy v1.0b3
#
DISCID=850a870a
DTITLE=Buddy Guy and Junior Wells - Drinkin' TNT 'N' Smokin' Dynamite
DYEAR=1988
DGENRE=Blues
TTITLE0=Introduction
TTITLE1=Ah'w Baby-Everything Gonna Be Alright
TTITLE2=How Can One Woman Be So Mean
TTITLE3=Checking On My Baby
TTITLE4=When You See The Tears From My Eyes
TTITLE5=Introduction
TTITLE6=Ten Years Ago
TTITLE7=Messing With The Kid
TTITLE8=Hoodoo Man Blues
TTITLE9=My Younger Days
EXTD=
EXTT0=
EXTT1=
EXTT2=
EXTT3=
EXTT4=
EXTT5=
EXTT6=
EXTT7=
EXTT8=
EXTT9=
PLAYORDER=
